<svg id="a" xmlns="http://www.w3.org/2000/svg" viewBox="0 0 530.8958 483.414" width="530.8958129882812" height="483.41400146484375"><g id="b"><path d="M530.8958,140.1693c-31.5261-4.4137-62.7786-13.2852-94.9258-11.2535-.8035.6097-.2335.596-.0726,1.0851,2.9304,8.9073,7.1164,16.8593,9.8264,26.1552,43.5173,149.2714-77.9865,294.9739-232.2802,279.752-20.3708-2.0097-40.0902-7.4653-59.2014-14.4882l2.0361-6.9501c1.1823-1.0263,18.1183,5.3722,20.9461,6.2042,116.1715,34.1812,237.9751-37.9483,264.4127-155.2048,9.2405-40.9836,6.5035-85.8206-9.4069-124.7936-.6841-1.6758-4.2482-10.3507-4.9817-11.0044-1.9046-1.6974-9.9465.7238-12.5039,1.4971-21.9406,6.6346-37.0896,26.2676-54.4548,39.9601-3.2325,2.5488-9.2349,5.8355-11.7502,8.2318-2.1794,2.0762-8.2845,21.403-10.0907,25.8775-7.0469,17.458-17.0884,39.1537-35.3586,47.0678-24.6931,10.6964-30.4962-10.2545-22.0503-29.545,8.8351-20.1793,26.8004-24.9504,43.5045-35.9241,7.7459-5.0887,8.4934-6.9666,11.2805-15.6954,1.2089-3.786,8.4895-31.1911,7.242-32.4681-2.016-.3516-2.2436,1.6165-3.53,2.7094-4.4736,3.801-18.0338,10.9359-20.226,15.2421-.7878,1.5475-.8853,3.3085-1.6219,4.8724-3.5978,7.6382-13.2954,20.0372-20.4161,24.5437-19.3647,12.2555-29.9625-9.78-14.3869-22.3808,2.6527-2.146,6.5222-4.1204,9.7506-5.2359,6.0613-2.0943,9.3412-.6817,12.3491-7.6329,4.4953-10.3887,9.2829-36.3726,7.5588-47.2866-1.9452-12.3135-10.9239-1.5618-14.6405,3.2366-6.3501,8.1983-12.0932,19.6118-16.3658,29.0938-14.7977,32.8398-22.2849,68.9149-31.8508,103.5299-8.2535,10.318-9.7461-6.2966-10.046-11.9973-1.6999-32.3065,10.2315-66.3574,16.7637-97.6836.583-2.7957,1.3562-5.6255,1.2407-8.4956-7.3797,3.1006-14.6001,6.7311-22.3686,8.8479-9.1395,2.4903-18.8955,3.3097-28.3112,3.6594-3.4772.1292-17.8802-.6711-19.7542.2273-2.7295,1.3086-1.8265,11.259-4.4969,14.9859-4.1072,5.7321-9.8763,2.0487-13.4631,5.0201-5.0445,4.1791-.5065,20.0586-3.5049,25.9935-2.2664,4.4861-9.1063-1.0458-10.6034-3.9344-2.3844-4.6007.8211-13.2898-.86-15.6253-2.412-3.3511-13.1712-.2595-17.2772-.7083-2.0758-.2269-3.8636-1.5427-5.964-1.5153-8.6551.1127-9.9793,8.3209-13.3644,14.1525-2.0766,3.5773-4.6125,4.1767-3.7762,8.9762.5072,2.9109,5.8783,13.9338,9.133,13.8433,2.7325-.076,2.3058-5.7135,3.7199-7.6134,2.7119-3.6434,17.8224-2.9799,20.0331.3475,2.3316,3.5094-4.1993,5.3242-6.1939,6.864-2.6548,2.0494-5.6696,7.645-4.0844,10.906,1.2748,2.6226,13.4702-.3092,16.3496,4.1303,4.2576,6.5645-6.6557,11.5566-4.9005,16.8748,1.4517,4.3984,14.6968,4.4275,18.4041,3.8505,5.8613-.9122,10.5068-6.991,16.0115-8.9663,7.0574-2.5324,5.7076.5619,9.8687,3.8068,2.0179,1.5735,11.006,6.6468,13.2404,6.7462,1.7657.0785,4.4745-1.2427,6.6756-1.2975,7.0563-.1759,14.96,10.1951,20.2748,14.3064,9.033,6.9874,21.8761.0261,27.5796,12.8837,1.3463,3.035,1.0122,10.4016,3.1513,11.8355,2.5856,1.7332,10.5303,1.0457,14.4699,3.0141,2.532,1.2651,3.1483,3.8714,4.7122,4.7757,3.635,2.102,10.2023-3.6016,16.0178.4707,1.5097,1.0571,2.4718,3.2142,3.8753,4.1175,2.942,1.8935,8.0988,1.3595,11.1115,3.8749,3.5512,2.965,1.9258,12.3018,2.1406,16.6367-1.9945,2.4175-4.8099,3.6656-6.9019,6.0864-9.0359,10.456-7.3212,34.4011-21.6256,39.8199-3.893,1.4748-17.5754,2.1776-19.0712,5.4104-1.4294,3.0892,4.7983,5.8021,1.0913,9.831-4.3464,3.1398-9.0346,6.1162-13.0716,9.6568-3.6254,3.1797-5.9702,7.7813-11.682,8.5499,1.2191,11.9326-5.122,7.2084-11.3336,9.3976-.879.3098-6.7938,4.601-7.2554,5.2333-1.8135,2.4843,1.8632,7.1888-1.905,9.6288l-.0127.8079c14.6854,10.1415,4.1377,13.0826-8.0335,9.5788-11.8727-3.418-24.5235-16.648-22.2604-29.7482.4044-2.3408,2.2213-4.9903,2.2985-7.2298.1014-2.9428-2.2549-7.3688-2.5387-10.9589-.436-5.5146-.5294-16.067.0228-21.4945.1922-1.889,1.3974-4.085,1.468-5.5406.2757-5.6779-11.2806-10.5518-15.1993-13.7084-11.484-9.2508-17.6959-22.2213-24.7797-34.5598-1.3106-2.2828-3.8401-3.8671-4.6112-6.986-1.0812-4.3735.0903-12.8753,1.638-17.16,2.2779-6.306,14.8197-16.5024,12.125-23.0848-1.7683-4.3195-5.1877-1.4097-7.9831-1.2473-6.0519.3517-6.9315-7.6778-12.484-8.7541-1.7555-.3403-6.3851-.0931-7.6321-1.3597-2.0112-4.2033-1.2083-14.9702-6.85-16.1297-1.2422-.2553-2.5186.01-3.7661-.2302-5.6239-1.0829-7.8935-9.2055-12.1099-12.3682-2.4219-1.8166-5.027-1.7397-7.5797-2.9108-6.2817-2.8819-16.383-15.0051-15.6146-22.2655.2808-2.6533,2.7079-5.2204,3.2428-7.7679,1.2372-5.8927-1.5212-2.9701-5.3014-3.7526-5.5634-1.1516-6.2179-8.8179-6.485-13.4922-.7771-13.5945,6.5936-23.9758,6.5175-37.2413-5.5853.302-11.1609-.7236-16.7165-1.0171-15.2951-.8081-47.4073-1.3853-59.9642,8.0146-4.8147,3.6042-3.8918,11.6257-6.0797,13.0231-6.1997,3.9598-5.6718-8.3749-3.7555-12.3679,6.5618-13.6726,27.6587-12.6763,40.2438-14.7063,6.6543-1.0734,5.5281-2.7547,8.7935-7.6915,18.6352-28.1739,41.631-53.8487,71.2419-70.6743,4.4428.5116,8.8504,1.1889,13.1975,2.2375,10.7757,2.5993,15.7147,4.7467,7.4722,15.4794-4.6075,5.9995-10.8942,11.2787-15.6696,17.3009-6.9614,8.7788-11.961,21.8198-21.8234,27.6325-2.401,1.4151-7.183,2.453-8.6801,4.3082-1.7064,2.1145-3.6451,11.8448-.7785,13.2273,23.7329,2.8024,47.1474,7.7424,70.7769,11.148,5.1084.7363,16.4125,3.0445,20.9033,2.5973.8163-.0813,1.2111-.231,1.923-.5847,5.8014-2.8819,12.8426-12.4248,19.2055-14.7615,5.1697-1.8986,4.3174,1.8507,7.9079,2.8012,1.6879.4468,3.5156.1826,5.2049-.1841l.4743-2.2723c-9.5912.3081-7.8376-12.7853-1.0053-15.7407,2.6332-1.139,11.5389-2.405,14.136-1.6426,3.2287.9478,1.644,6.2409,3.574,7.9158.7641.6632,6.3942,1.8548,6.7692,1.4711.8259-3.865-2.6793-3.0201-4.6795-4.5601-2.7841-2.1435-1.4092-6.1446-1.9321-9.0583-.9482-5.2833-12.3213-4.8557-11.8903-12.3397-3.3413.0142-4.6317,2.1705-8.0676.8233-5.1735-2.0286-4.0879-12.1346-8.7534-13.7241-2.6709-.91-1.9629.7221-2.8659,2.4167-.7768,1.4577-3.4929,4.6549-3.6846,5.8257-.3852,2.3531,3.227,4.3874,1.6486,8.1281-1.0097,2.393-5.5024,2.8424-7.1938,4.2928-1.0543.9041-1.4207,2.5457-2.2266,3.5224-5.0844,6.1617-15.666,3.6544-14.2669-5.5324.2328-1.529,1.719-2.566.506-4.4354-.6614-1.0194-5.2154-1.8615-6.7042-2.9079-3.845-2.7026-1.0698-8.4021.7737-11.5671,6.1811-10.6119,16.8098-10.3588,26.8679-14.5946,5.9162-2.4915,10.3419-7.0698,17.4942-5.7387.8624-3.6903-5.7601-3.2812-8.2455-2.9969-5.1566.5899-7.2342,5.7724-13.4502,3.9652-4.0819-1.1867-3.8628-5.4903-3.2856-8.9566-2.622-.3517-3.8977,2.2125-5.9869,3.2496-4.2474,2.1085-13.3521,3.5282-15.7415-1.7486-2.0094-4.4377,1.0838-5.5228,3.5101-8.4808.7165-7.2786.0466-19.9056,7.8912-23.5855,7.3871-3.4653,27.5026-5.5576,36.0322-5.9294,32.327-1.4088,65.6635,2.6491,95.6696,14.7767,38.4629,15.5455,83.701,49.1286,104.0057,85.8237,2.0461,3.6977,9.5896,20.7904,12.7558,21.7136,32.9147-.4808,65.2044,6.2886,97.5562,11.094v6.4944ZM423.4453,124.1373c1.0582-1.2418-1.9545-6.5524-2.6871-7.9579C378.8453,35.7732,274.9036-9.3535,187.2059,14.5209c-.7332.1996-1.7369.2941-2.363.6343-4.1255,2.241-.877,16.3649-1.6256,20.6068,6.4617-.198,8.1489-6.3468,15.2489-5.5061,6.8777.8144,1.7817,9.5945,2.2367,9.997,2.5163.4941,3.8938-1.3894,5.9966-2.2408,4.6175-1.8695,14.1391-2.77,17.9804.9938,2.5523,2.5008,4.37,12.3436,7.8202,12.6339.6012.0506,10.2374-4.0915,11.1242-4.6749,2.3393-1.5388-1.9576-5.833-3.6065-6.8121-3.2809-1.948-12.1807-1.935-12.8162-6.1793-.8411-5.6179,6.7153-5.2373,10.4533-6.4684,2.8332-.9332,5.0104-2.7971,7.7358-3.7538,5.2034-1.8265,21.9292-4.0567,26.4315-1.4167,2.8621,1.6782-.2643,6.3312,2.8164,9.6726,2.1226,2.3022,11.456,7.0541,12.2267,8.7547,1.6003,3.5315-2.2757,12.4599-4.7258,15.244-3.43,3.8977-4.4752,1.4802-8.2711,1.2294-4.1328-.2731-6.7661,2.1969-7.23,6.2492-.2813,2.4573,1.3275,9.594-.4945,10.494-2.6075,1.288-5.0011-1.6196-7.3205-2.6756-2.2728-1.0347-4.6681-1.2369-6.836-2.6554-3.4354-2.2479-6.9628-9.3442-10.6084-9.8906-4.3258-.6483-8.9119,5.9185-11.9669,8.4873-.5998,1.4454,2.8578,10.9132,4.0386,12.4476,2.9954,3.8924,9.4633,1.3245,9.7472,8.2675.0902,2.2053-1.0895,4.4348.4416,6.5233,2.1513,2.9345,13.4014,4.3403,7.7903,10.7429-4.2729,4.8757-9.9266,3.9032-15.6792,3.5577-.5946,7.6176-15.6803,12.7158-21.5775,11.1679-1.2081-.3171-2.3344-1.5397-3.7706-1.7415-4.0995-.5759-8.1927,4.3077-11.2301,6.7053-.8991.7097-2.0629.5109-2.4562,2.0194.1757,1.9049,14.2953,1.3754,16.2187,1.2404,13.91-.9762,31.5054-5.8759,43.5502-12.8983,3.6164-2.1084,7.1599-5.5777,11.0171-6.9666,2.537-.9136,8.7429-2.4708,9.5317,1.2546.5092,2.405-2.8535,16.1814-3.6432,19.6211-3.4352,14.9611-8.5895,29.622-10.2447,44.9517,1.1476.2167,1.1278-.5283,1.4753-1.2671,11.252-23.9219,13.7953-53.4607,34.2418-73.163,14.7595-14.2222,27.6474-9.3784,28.7189,11.204.6648,12.7688-1.9986,24.8599-4.4916,37.2484.9859,1.0284,12.6651-8.5201,13.9916-9.7319,4.1282-3.7713,9.0675-8.811,9.8545-14.6237.6894-5.0917-1.703-14.3885,4.1259-16.856,5.6126-2.376,10.9347.101,10.9861,6.4974.0317,3.9381-1.4136,11.1933-2.1521,15.3262-2.6091,14.6014-7.6413,28.6981-9.8301,43.368,4.0042-.6361,7.5278-3.6028,10.7159-6.0138,12.9317-9.7798,23.2915-22.9953,36.9727-31.9654,7.8731-5.162,16.3142-8.6322,25.6905-10.0233ZM279.5714,52.1861c.3958-2.5825,3.0611-6.3601,1.8059-8.9368-.2347-.4817-6.86-4.1966-8.2018-5.2827-1.5792-1.2783-4.7238-4.2611-5.4342-6.0556-.7179-1.8137-.3679-4.1141-2.0996-5.3938-10.1876-1.6362-18.9317,2.0188-27.9627,5.9928.9802,2.6013,3.8811,1.6213,5.9667,3.0158,1.1629.7775,1.8506,2.447,3.002,3.4922,2.0575,1.8677,9.3462,4.1896,6.5421,8.0234-.8342,1.1406-6.2466,3.3815-7.9012,4.5732-.3466.2496-.8512-.1032-.6164.865l11.0166,11.967,5.9573.7903c.0598-10.37,8.5331-14.1844,17.9253-13.0506ZM139.7553,42.7566c-4.9033.5836-10.1754-3.0222-15.0007-1.7645-2.2081.5756-6.0702,3.4924-8.1341,4.8511-20.882,13.7464-41.5386,35.7378-55.4013,56.4985-.9064,1.3574-5.5154,7.6302-4.3692,8.8366l31.9861,1.2969c1.4292-6.6408-.8922-13.9103,5.8124-18.1664,5.9326-3.7661,12.6145-5.7545,17.1337-11.8402,1.7448-2.3496,2.4858-5.5165,3.913-8.0764,5.65-10.1346,14.6787-17.1866,21.5486-25.909,1.3981-1.7751,2.5387-3.3153,2.5115-5.7266ZM215.1848,50.2498c-3.8819.4701-6.7476,3.35-10.3567,4.8744-7.4485,3.1459-18.5871,4.3994-23.814,11.1543-7.0418,9.1003,5.9658,5.8618,7.5934,11.2963,1.1906,3.9753-4.1487,7.7512-1.6887,9.686,3.6055,2.8358,5.4991-4.1955,7.2631-5.8154,1.3414-1.2318,3.3741-1.0827,4.0741-1.9252.8125-.9778-.4584-5.7115.0509-7.9373.3597-1.572,2.6999-3.4474,3.4945-4.998.9108-1.7774,1.4714-6.1747,2.9142-7.0738,2.0429-1.2731,5.1922.1644,7.4769-.2691.2306-1.7171-.6526-4.8802.7161-6.0279,1.0811-.9066,2.8401-.2708,2.2762-2.964ZM230.5193,56.8906c-.5366-.6349-4.775-3.6806-5.5021-3.5482-2.6029,2.0693-8.7146,2.2746-6.0362,6.8539.8649,1.4787,4.2835,3.5192,5.9572,3.4859,2.2521-.0448,7.6523-4.3412,5.5811-6.7916ZM219.6849,73.7283c2.7171-.0249,5.7718-.676,4.7663-4.0066l-5.265-1.4904.4986,5.497ZM232.1744,105.7011l-.0724-4.6779c-.9325-2.8498-15.7692.7066-11.9648,5.4753,1.8116,2.2708,9.3339-1.3463,12.0372-.7973ZM180.6647,132.2291l-87.8574-12.5351-1.948,13.1542c.3638,1.3515,2.9148,1.1691,3.9518,1.5639,5.3239,2.0267,1.4297,10.1407,1.0473,14.0611-.8167,8.3708,4.6273,21.7156,1.8062,28.7824-1.0124,2.536-3.4254,2.6895-2.7576,6.0086.4177,2.0762,7.7396,11.4615,9.6335,12.8559,3.3509,2.4672,8.309,2.6042,11.2109,4.7746,2.3529,1.7598,10.7257,14.708,14.0097,12.9969,2.6415-1.3763.2781-3.8898.0331-5.5661-.3891-2.6623,1.6868-8.0297,2.728-10.6976.8138-2.0852,5.4123-7.862.4876-7.546-4.694.3012-1.6272,10.3048-8.0454,11.0006-9.0302.9789-16.9321-15.7004-16.7013-23.1793.1141-3.6988,2.7615-4.6316,4.4366-7.0928,3.7556-5.518,3.3863-11.9466,10.4094-15.5675,7.3945-3.8123,9.6125-.6867,16.3939-.5521,4.7508.0943,14.7866-2.8761,18.503.4499,1.6598,1.4854,1.2772,4.7928,3.7283,5.009.1117-3.2662,1.5958-8.4046,4.2509-10.4862,3.7066-2.906,7.1632-1.2259,10.7365-2.7512,4.9239-2.1018,3.9789-10.3095,3.9429-14.6831ZM299.1075,161.1537c-7.5331.8989-20.6184,6.6315-18.7614,16.0153,5.2185,2.2328,11.6115-5.0707,14.7526-8.7891.8689-1.0286,5.0404-6.2023,4.0088-7.2261ZM161.734,173.6427c.9309-1.3062-.2826-11.505-1.2459-11.4823-1.6409,1.8609-1.7898,9.4023-.4816,10.9624.5769.688.9097.5641,1.7275.5199ZM328.5801,189.6289c-.478-.508-4.0632,1.5144-4.8293,1.9094-13.1075,6.7592-32.4294,18.3382-39.0668,31.8695-6.8295,13.9231-5.5776,32.1626,13.5842,19.0802,8.8952-6.0731,14.0115-13.6603,18.9111-23.0514,1.8282-3.504,13.1188-27.9818,11.4008-29.8077ZM142.7542,230.0864c-1.9639-5.9338,2.4374-11.267,4.9841-16.2346-1.8846-1.4767-6.4998-2.3813-8.6548-1.6702-2.5631.8457.9659,4.2021,1.0684,5.2457.1256,1.278-1.7539,2.7432-1.9302,4.4115-.1169,1.1061.8668,7.5858,1.5065,8.0316l3.0261.216ZM308.9473,290.1906c-1.6121-1.7759-7.1856-1.9246-9.8628-3.3731-2.3823-1.2889-3.7576-4.272-6.1595-4.8711-3.8278-.9547-9.46,3.5737-12.9499,2.5029-1.5296-.4693-2.2067-3.8784-3.3371-5.158-4.6892-5.3082-16.643-.3598-19.235-7.7405-1.7921-5.1031.7746-8.8018-3.9828-13.5018-5.4235-5.3581-13.7731-3.0718-20.0924-5.8839-6.248-2.7804-14.9198-15.3147-21.3738-16.0879-3.8854-.4654-7.2424,1.3782-11.5333.0393-2.0307-.6336-10.7631-5.6023-12.4568-7.0255-1.1498-.9662-.8972-2.4512-3.002-2.5489-1.9016-.0882-7.2555,3.9896-9.402,5.1333-3.7964,2.0228-7.7101,3.6038-11.7983,4.9385-1.191,1.7407,3.8339,3.4917,4.7298,4.4571,3.5886,3.8668-1.3632,14.7771-3.8459,18.6556-2.5378,3.9646-6.8333,6.4141-8.496,10.9867-.8046,2.2127-1.8596,8.8248-1.8697,11.1501-.0073,1.6752,9.1111,16.9929,10.7459,19.6242,4.9169,7.9138,10.7465,16.5321,17.9565,22.5073,5.0812,4.2109,14.2638,7.0028,16.3286,13.6418.948,3.0482-.6887,5.6199-1.0495,8.6618-.8206,6.9186-1.1032,16.4541.0787,23.2848.6184,3.5738,2.6351,6.655,2.3922,10.1497-.1943,2.7947-2.176,5.3799-2.4639,8.5319-.8095,8.8644,9.8848,22.8512,19.4153,22.666-1.7836-3.3992,1.5275-5.9951,1.9662-8.7678.8647-5.4657-1.9015-4.6352,2.775-10.2183,5.2053-6.2145,6.0282-3.9947,12.775-5.2077,7.2328-1.3004,1.2743-3.8188-1.0368-6.0193-2.5959-2.4718-6.9668-6.3057-2.7592-9.7636,3.9061-3.2101,9.4097,4.8403,13.5566,4.9905,3.0453.1103,10.4665-9.0177,13.7325-11.1748,1.2316-.8134,4.5627-2.1156,4.9224-2.5929,1.4092-1.8699-2.7403-5.9994-1.0909-10.0633,1.0947-2.6972,11.4077-6.6458,14.4101-7.0682,4.7276-.6651,6.777.5907,11.1419-2.8454,9.2273-7.2639,8.8459-27.2874,17.0402-37.4116,3.5145-4.3422,6.4499-3.182,5.439-10.4601-.1307-.9413-1.0152-3.4846-1.6081-4.1377Z" fill="#1d1d1b" class="svg-elem-1"></path><path d="M29.8614,278.5467c.5551.5724,6.546-1.881,7.8454-1.8846,1.9348-.0053,2.3535,3.7618.8516,4.842-1.9009,1.3671-10.4259,3.6055-12.2091,1.8038-3.3234-3.3578,5.4933-18.7611,4.5085-19.7432l-8.7053,1.9502c-2.9815-4.7801-.0834-5.6801,4.2048-6.7035,1.9726-.4707,7.1088-1.8099,8.1273.3709,2.0701,4.4324-4.9485,14.3902-4.6231,19.3644Z" fill="#1d1d1b" class="svg-elem-2"></path><path d="M253.1501,468.3834l.5024-7.4947,2.7828.4677c.8279,5.2925-7.1587,11.8159,2.2109,13.0289-.9974,4.4594-5.6612.3698-7.7028.497-1.0776.0671-2.0521,1.0979-3.152,1.3743-2.9682.7461-9.1777.4312-10.0153-3.2314-.9576-4.1873,1.7033-6.1225,2.2708-9.5043.4696-2.7981-.8372-5.404,2.4299-7.0621,6.5749-3.3369,10.9503,4.5035,5.1899,8.6789,1.8268,1.0808,3.1227,3.3792,5.4835,3.2458ZM244.012,458.474c-2.1691.6634-2.1805,4.1458-.0038,4.8205,5.0852,1.5763,4.4104-6.1683.0038-4.8205ZM243.0237,466.4712c-3.7091,1.0804-3.8277,7.6087,1.9588,7.8754,8.3831.3864,2.8081-9.264-1.9588-7.8754Z" fill="#1d1d1b" class="svg-elem-3"></path><path d="M94.2967,378.4599l-1.3666-7.2641c.3874-.8766,1.1993-.888,2.0319-.6472,2.5365.7336,2.4902,11.5502,6.5513,13.9336,3.3571,1.9703,4.7839-4.0209,8.0381-.0227,1.1741,1.9929-5.4556,9.1529-6.7775,9.756-1.6828.7677-5.8481-3.0699-7.2127-4.276-2.0314-1.7954-10.2609-9.8583-7.0416-12.5316,1.5617-1.2968,5.3792,1.4633,5.7771,1.052ZM100.6674,389.3271c3.0339-3.0341-7.1292-9.6047-8.3637-8.3642-.6653,2.8675,5.6596,11.0684,8.3637,8.3642Z" fill="#1d1d1b" class="svg-elem-4"></path><path d="M34.8517,158.653c1.0704,6.3349-7.6063,8.0113-7.4636,13.9613,5.9301,1.0563,6.9653,5.6535-.2767,5.5637-1.1594-.0144-7.145-.7699-7.7479-1.2855-2.0626-1.7639.8725-17.701,4.7816-18.2558,3.9248-.557,2.7051,4.8994,4.4577,4.5107,2.0265-1.513,3.4388-4.8347,6.2488-4.4943ZM23.6116,163.6613c-.9601,1.6741-3.8601,8.669-.4854,9.0135,3.0963.3161,4.1382-8.1322.4854-9.0135Z" fill="#1d1d1b" class="svg-elem-5"></path><path d="M49.2248,317.132c4.847-.2427,9.6855,6.1025,11.8639,9.8664,1.9524,3.3733,7.2892,14.3685,2.1122,16.619-5.6207,2.4434-13.0523-7.8611-15.1314-12.0917-1.8094-3.6817-5.8158-14.0446,1.1552-14.3937ZM51.667,321.159c-6.9012.3466-1.0575,11.2636,1.1824,14.0791,1.8689,2.3491,7.7369,7.1707,9.2565,2.2819,1.3421-4.3178-5.5814-16.605-10.4389-16.3611Z" fill="#1d1d1b" class="svg-elem-6"></path><path d="M26.2391,199.9906c1.5575-1.4185,1.8873-8.1859.5836-10.0752-1.2862-1.8639-6.864-1.9975-8.9826-2.5073l-.4722-4.7783c3.5436-.2242,10.9655-.3001,12.2715,3.9691,1.127,3.6841.3454,13.5352-1.6762,16.868-2.1895,3.6096-10.7506,4.6444-12.2321.9958-2.1952-5.4065,7.9792-2.1691,10.508-4.4721Z" fill="#1d1d1b" class="svg-elem-7"></path><path d="M351.062,462.8892v13.4883c-4.3732-.2259-1.6003-10.4249-3.461-11.7755-6.7833-1.4756-3.9548,7.4351-5.4745,11.4846l-2.5539.2909v-10.7407c0-1.0884-3.3519-1.9563-4.5346-.5373-2.5933,3.1115,1.6675,11.7107-3.9576,11.278v-13.7381c0-.0833,1.0045-1.1086,1.2374-1.1141.2411-.0057.9698.8872,1.9996.9139,1.2315.0319,2.1929-1.0737,3.5034-1.0806,1.6028-.0085,2.7029,1.4347,4.0316,1.5186,2.6566.1678,5.7855-2.8665,9.2095.012Z" fill="#1d1d1b" class="svg-elem-8"></path><path d="M207.1914,475.8796c-6.1392,1.6403-10.3084.2731-10.2913-6.6618.0218-8.832,5.9518-7.5859,12.8242-7.1097.6029.4195,1.0793,10.9292.9599,12.5129-.6288,8.3422-6.0128,11.2381-12.9705,6.5022,1.9036-2.2581,4.9054.1518,7.4755-1.0071,1.2421-.5601,2.2759-2.8688,2.0022-4.2366ZM202.5521,463.9934c-3.6717,1.1028-4.0241,11.1187,1.8493,10.3716,4.7932-.6097,4.6821-12.3333-1.8493-10.3716Z" fill="#1d1d1b" class="svg-elem-9"></path><path d="M29.8526,230.0937c1.707,3.1883-3.0127,6.5068-2.957,9.1729.0271,1.2963,1.4455,7.3334,2.0722,8.4514,1.1582,2.0662,6.53,3.0226,2.5689,6.2756-4.132-2.1491-17.4334-6.6762-13.6933-13.1893.3606-.6279,9.522-9.7729,10.2415-10.2386.6048-.3915,1.0067-.6317,1.7677-.4719ZM25.3571,240.5843c-5.2357.9642-3.8642,5.5512,1.0048,5.4881l-1.0048-5.4881Z" fill="#1d1d1b" class="svg-elem-10"></path><path d="M28.8575,137.6697c.5729,3.5958-1.1346,6.6467-1.9939,9.99,5.6838,1.1889,1.6382-8.6516,7.4885-7.4878.8323.8033-3.4718,8.4919-1.1956,9.0195,3.0155.699,2.8504-5.7702,4.081-7.8875.5327-.9166,1.4711-1.6961,2.6093-1.6318l-3.4978,14.9879-12.9781-2.0076c-.5289-4.8743,1.8825-9.2314,2.8625-13.8607.4507-1.2118,1.4718-1.2213,2.6241-1.122Z" fill="#1d1d1b" class="svg-elem-11"></path><path d="M85.8071,456.3948l2.5179.3794.4474,7.3956,8.5821-.07,1.6956-7.6997c1.5138-2.1339,2.2013,2.5499,2.2618,3.2226.1747,1.9423.0616,16.1485-.5231,16.7503l-2.9928.0044v-7.7433l-.8281-.6706c-2.7024.1694-6.4496-.8691-8.6631.6706v7.7433l-2.4977-.7493v-19.2333Z" fill="#1d1d1b" class="svg-elem-12"></path><path d="M390.5255,461.8901c.2988,6.5132,3.112,21.2623-6.7433,21.5221-1.7051.045-6.1664-.7684-4.9925-3.0413,3.9961-.4919,7.9578,1.686,9.224-3.7494l-7.0055-.4673c-4.2789-1.7981-4.5176-9.3442-1.9848-12.5284.3233-.4064,1.9465-1.7358,2.2606-1.7358h9.2415ZM387.3973,465.0147c-9.5092-5.9875-9.3309,11.5077-1.7268,9.2666,2.7281-.8041,2.9645-7.112,1.7268-9.2666Z" fill="#1d1d1b" class="svg-elem-13"></path><path d="M114.7803,390.4521c4.4773-.4722,3.046,4.8355,4.4724,7.2671.5722.9755,9.9372,8.1229,11.109,8.3829,2.2412.4972,8.2016-1.8422,7.9035,2.5782-4.7805.2407-17.0387,3.961-20.498.0162-.4297-.4899-1.2189-2.3257-1.4573-3.0387-.4822-1.4421-1.5296-6.6183-1.5296-7.9621v-7.2437ZM126.2685,406.4322c-.9894-1.0067-5.4209-6.9954-6.7546-5.0028-.5637,1.1617-.2215,5.1371.7411,5.7774l6.0136-.7746Z" fill="#1d1d1b" class="svg-elem-14"></path><path d="M144.7526,455.8953h7.2433c1.9852,0,6.2633,2.8809,7.346,4.6432,5.8924,9.5908-5.4837,19.9973-14.5893,14.5902v-19.2333ZM147.3688,459.5105c-.8275.8275-.9564,11.8889-.374,12.8761.4108.6963,1.7205.91,2.4925,1.0001,12.8318,1.4983,9.8352-18.505-2.1185-13.8762Z" fill="#1d1d1b" class="svg-elem-15"></path><path d="M284.1238,473.6299c-.7984,3.7461-7.7256,3.3363-10.5059,2.5137-6.7517-1.9976-7.7303-12.4773-3.183-17.2025,2.8595-2.9713,11.4945-5.8293,12.6874-.0512-3.5215-.5432-7.1378-.8294-10.0026,1.737-3.8757,3.472-2.9656,12.335,2.7926,13.2192,2.5579.3928,5.7195.0191,5.6905-3.1786-.0301-3.3227-4.8527-1.1545-4.4726-4.7809h6.9935c-.3248,2.2716.4463,5.6492,0,7.7433Z" fill="#1d1d1b" class="svg-elem-16"></path><path d="M44.3972,306.9796l5.4374-.7388c1.1144.5844,1.6812,3.2078.881,4.1504-.8244.971-10.1039,5.2051-11.8726,3.8812l-5.4853-13.7391c3.9463-1.2316,4.0138,10.0586,7.7252,8.986,2.2841-.6601-2.0524-7.7047-2.1455-9.3433-.0389-.6842.5213-1.2913,1.1562-1.1435l4.3038,7.9471Z" fill="#1d1d1b" class="svg-elem-17"></path><path d="M18.3694,209.1095v6.9939h8.2424c1.1801,0,4.8514,2.7442,2.4477,4.4489-.2053.1456-2.3146,1.0463-2.4477,1.0463h-7.7428v7.7433l-1.2421.7475c-.2903-.3755-1.7551-1.5799-1.7551-1.7467v-19.2333h2.4977Z" fill="#1d1d1b" class="svg-elem-18"></path><path d="M82.8075,375.9619c-1.0081.2163-1.3343-.2212-2.0185-.7241-1.994-1.4655-11.4311-12.2349-12.5657-14.41-.572-1.0965-1.0848-2.036-.8964-3.3448,3.4457.6006,4.5269,4.6919,7.3096,6.4572,1.7165.2937,8.9862-10.2297,10.6082-2.8288-.3816,2.5846-6.3797,5.3081-6.4245,7.0985-.0325,1.2976,4.7064,7.0822,3.9873,7.7519Z" fill="#1d1d1b" class="svg-elem-19"></path><path d="M107.0375,476.3775c-1.8081-.3178-3.2051-1.9382-3.2814-3.7571-.1903-4.537,5.1298-5.0024,8.4733-5.7847,1.0267-4.9784-4.0036-1.6064-6.6872-1.9443-.8579-3.3642,6.0918-4.4238,8.2107-2.7234,3.0575,2.4536,2.3752,14.2096.7777,14.2096-2.2901-.2763-5.3286.3804-7.4931,0ZM112.2107,473.8091c.6843-1.5816,1.1225-3.5217-.4181-4.7024l-4.424,1.8497.3869,2.7061,4.4551.1466Z" fill="#1d1d1b" class="svg-elem-20"></path><path d="M166.2328,469.8831c.3163,5.0129,4.7264,4.3121,8.4894,3.4994.2654,2.2494-1.3738,3.1122-3.3687,3.3784-11.0261,1.471-10.2255-15.6877-1.3903-15.3927,4.4783.1495,7.4994,4.5185,5.0115,8.5149h-8.7419ZM173.2271,466.8768c-1.2752-3.3093-5.7257-4.5274-6.5365-.2404-.0242,2.1251,5.2576,1.0537,6.5365.2404Z" fill="#1d1d1b" class="svg-elem-21"></path><path d="M319.4606,461.5115c10.8791-1.7622,12.1627,16.3301-.62,14.864-7.6895-.8819-6.8712-13.6506.62-14.864ZM320.9163,463.5363c-4.9787.2725-7.0483,10.8533-.077,10.8713,5.7357.0148,5.6512-11.1764.077-10.8713Z" fill="#1d1d1b" class="svg-elem-22"></path><path d="M309.431,474.7095c-2.8619,2.8619-10.6219,2.4657-12.1865-1.7119-2.291-6.1173,1.8671-13.2222,8.875-11.371,4.9401,1.305,6.7902,9.6043,3.3115,13.0829ZM302.4619,463.9982c-4.1522.9547-4.4396,11.9315,2.7873,10.2714,4.9695-1.1416,4.7967-12.0152-2.7873-10.2714Z" fill="#1d1d1b" class="svg-elem-23"></path><path d="M214.688,476.3775v-13.7381l.7493-.7493h8.4922c1.231,0,2.9024,2.6063,3.1289,3.8649.3406,1.8928.3537,9.197-.6378,10.6158-1.208,1.7286-2.5104-1.8522-2.6461-2.8771-.3568-2.6936,2.2132-9.1635-2.8429-9.1594-4.8913.0039-2.9597,8.2147-3.9654,11.5738l-2.2781.4694Z" fill="#1d1d1b" class="svg-elem-24"></path><path d="M374.5403,476.3775c-.4628-.152-1.025.4039-1.2595.3815-2.1771-.2085-.904-10.6488-3.0671-12.411-6.7508-2.2633-4.7031,8.5554-5.6667,12.5267-.9566.1907-1.5292-.7121-1.7702-1.472-.5901-1.8613-1.2607-12.6016-.2068-13.4981,1.2411-.5122,2.3093.8878,3.1371.8762,2.0316-.0284,5.4264-3.2596,7.5578.1346.2498.3977,1.2754,3.8984,1.2754,4.2201v9.242Z" fill="#1d1d1b" class="svg-elem-25"></path><path d="M181.7157,464.3884c-.7227,5.0911,5.9182,2.3064,6.4024,7.8693.4029,4.6291-7.5554,5.1033-10.3926,3.1116-.0136-3.0639,6.3538-.238,6.9573-2.3011.989-3.3805-6.042-2.3854-6.4933-6.4139-.6031-5.3844,6.0832-6.6404,9.5134-3.5153.0115.9196-5.1416,1.4846-5.9872,1.2495Z" fill="#1d1d1b" class="svg-elem-26"></path><path d="M288.1201,462.6394c.4316-1.3984,6.087-.5079,7.4956-.7472l.0207,1.687c-6.9647,1.188-3.6328,7.6386-5.0231,12.7939l-2.4932.0044v-13.7381Z" fill="#1d1d1b" class="svg-elem-27"></path><path d="M128.7649,476.3753c-1.32.1816-2.2387-.4621-2.4808-1.7607-.2429-1.3031-.2337-10.2899.0862-11.3753.6145-2.0849,5.9334-1.2086,7.5703-.7778,2.8735.7562-2.5422,1.7601-2.8797,1.9719-2.2889,1.4362-2.3768,9.3769-2.296,11.9418Z" fill="#1d1d1b" class="svg-elem-28"></path><path d="M122.2734,476.3775h-2.4977v-14.987c.7101-.3486,2.4977.7684,2.4977,1.2489v13.7381Z" fill="#1d1d1b" class="svg-elem-29"></path><path d="M193.7074,461.3905v13.7381c0,.4805-1.7876,1.5976-2.4977,1.2489v-14.987h2.4977Z" fill="#1d1d1b" class="svg-elem-30"></path><path d="M358.0555,476.3775h-2.4977v-14.2376l1.2418-.7472c.2402.3099,1.2559,1.0948,1.2559,1.2468v13.7381Z" fill="#1d1d1b" class="svg-elem-31"></path><path d="M354.4378,79.3553c15.1882-2.1069,16.6085,22.0977-.0754,20.2914-10.9676-1.1874-10.7147-18.7946.0754-20.2914Z" fill="#1d1d1b" class="svg-elem-32"></path></g></svg>